<?xml version="1.0" encoding="UTF-8" standalone="no"?>
<!-- Created with Inkscape (http://www.inkscape.org/) -->

<svg
   width="15.160057mm"
   height="20.000006mm"
   viewBox="0 0 15.160057 20.000005"
   version="1.1"
   id="svg1"
   xml:space="preserve"
   xmlns="http://www.w3.org/2000/svg"
   xmlns:svg="http://www.w3.org/2000/svg"><defs
     id="defs1" /><g
     id="layer1"
     transform="translate(454.14908,187.25497)"><g
       id="g289"
       transform="matrix(2.4199648,0,0,2.4199648,507.94652,-158.47453)"><rect
         style="fill:#000000;fill-opacity:1;stroke:#f0f0f0;stroke-width:0.264583;stroke-opacity:1"
         id="rect192"
         width="6"
         height="8"
         x="-397.43365"
         y="-11.760626"
         rx="2.4000001" /><rect
         style="fill:#000000;fill-opacity:1;stroke:#f0f0f0;stroke-width:0.264583;stroke-opacity:1"
         id="rect193"
         width="1.2"
         height="2"
         x="-395.03366"
         y="-9.5305614"
         rx="0.60000002" /><path
         style="fill:#f0f0f0;fill-opacity:1;stroke:#f0f0f0;stroke-width:0.264583;stroke-opacity:1"
         d="m -393.85932,-8.506419 h 2.38879"
         id="path195" /><path
         style="fill:#f0f0f0;fill-opacity:1;stroke:#f0f0f0;stroke-width:0.264583;stroke-opacity:1"
         d="m -397.45326,-8.506419 h 2.38879"
         id="path196" /><path
         style="fill:#f0f0f0;fill-opacity:1;stroke:#f0f0f0;stroke-width:0.264583;stroke-opacity:1"
         d="m -394.43365,-11.756032 v 2.173581"
         id="path197" /><path
         style="fill:#f0f0f0;fill-opacity:1;stroke:#000000;stroke-width:0.00322051"
         d="m -397.29862,-9.070654 c 0.001,-0.45231 0.002,-0.456001 0.017,-0.57889 0.0842,-0.6663 0.46305,-1.263414 1.03035,-1.623867 0.28615,-0.181813 0.60696,-0.296187 0.9466,-0.337476 0.10277,-0.01249 0.13593,-0.01363 0.43742,-0.01511 l 0.2987,-0.0016 v 0.987451 c 0,0.787286 -7.9e-4,0.987647 -0.004,0.988433 -0.0991,0.02424 -0.12667,0.03359 -0.18894,0.06415 -0.18715,0.09185 -0.32982,0.26734 -0.38156,0.469355 -0.0215,0.084 -0.0221,0.09195 -0.0237,0.293788 l -0.001,0.182764 h -1.06591 -1.06592 z"
         id="path205" /></g></g></svg>
