<?xml version="1.0" encoding="UTF-8" standalone="no"?>
<!-- Created with Inkscape (http://www.inkscape.org/) -->

<svg
   width="15.160089mm"
   height="19.99999mm"
   viewBox="0 0 15.160089 19.99999"
   version="1.1"
   id="svg1"
   xml:space="preserve"
   xmlns="http://www.w3.org/2000/svg"
   xmlns:svg="http://www.w3.org/2000/svg"><defs
     id="defs1" /><g
     id="layer1"
     transform="translate(342.84607,130.51242)"><g
       id="g290"
       transform="matrix(2.4199648,0,0,2.4199648,434.26306,-157.43787)"><rect
         style="fill:#000000;fill-opacity:1;stroke:#f0f0f0;stroke-width:0.264583;stroke-opacity:1"
         id="rect171"
         width="6"
         height="8"
         x="-320.99185"
         y="11.258667"
         rx="2.4000001" /><rect
         style="fill:#000000;fill-opacity:1;stroke:#f0f0f0;stroke-width:0.264583;stroke-opacity:1"
         id="rect172"
         width="1.2"
         height="2"
         x="-318.59183"
         y="13.488731"
         rx="0.60000002" /><path
         style="fill:#f0f0f0;fill-opacity:1;stroke:#f0f0f0;stroke-width:0.264583;stroke-opacity:1"
         d="m -317.41749,14.512874 h 2.38879"
         id="path172" /><path
         style="fill:#f0f0f0;fill-opacity:1;stroke:#f0f0f0;stroke-width:0.264583;stroke-opacity:1"
         d="m -321.01143,14.512874 h 2.38879"
         id="path173" /><path
         style="fill:#f0f0f0;fill-opacity:1;stroke:#f0f0f0;stroke-width:0.264583;stroke-opacity:1"
         d="m -317.99182,11.263261 v 2.173581"
         id="path174" /><path
         style="fill:#ffff00;fill-opacity:1;stroke:#000000;stroke-width:0.00455451"
         d="m -320.85518,13.931225 c 0.002,-0.486183 0.002,-0.484061 0.0307,-0.655344 0.13476,-0.799415 0.69022,-1.466019 1.45463,-1.745673 0.13282,-0.04859 0.2845,-0.08765 0.42463,-0.109334 0.14782,-0.02289 0.1748,-0.02429 0.50392,-0.02643 l 0.31313,-0.0021 -10e-4,0.986912 -0.001,0.986911 -0.041,0.01048 c -0.0875,0.02238 -0.17518,0.06251 -0.24696,0.113028 -0.0513,0.0361 -0.13677,0.121584 -0.17287,0.17287 -0.0548,0.07786 -0.0973,0.175469 -0.12067,0.277355 -0.009,0.03904 -0.01,0.05841 -0.0117,0.239456 l -0.002,0.196982 h -1.06568 -1.06567 z"
         id="path175" /></g></g></svg>
